<svg xmlns="http://www.w3.org/2000/svg" fill="none" viewBox="0 0 24 24" stroke-width="1.5" height="16" width="16"><path stroke="#bfbed0" d="M12 17.25C11.7929 17.25 11.625 17.0821 11.625 16.875C11.625 16.6679 11.7929 16.5 12 16.5"></path><path stroke="#bfbed0" d="M12 17.25C12.2071 17.25 12.375 17.0821 12.375 16.875C12.375 16.6679 12.2071 16.5 12 16.5"></path><path stroke="#bfbed0" stroke-linecap="round" stroke-miterlimit="10" d="M12 13.5V6"></path><path stroke="#bfbed0" stroke-linecap="round" stroke-linejoin="round" d="M1.27995 13.281C0.940605 12.9412 0.75 12.4807 0.75 12.0005C0.75 11.5203 0.940605 11.0597 1.27995 10.72L10.7199 1.28098C10.8879 1.11263 11.0874 0.979059 11.307 0.887924C11.5267 0.796789 11.7621 0.749878 11.9999 0.749878C12.2377 0.749878 12.4732 0.796789 12.6929 0.887924C12.9125 0.979059 13.112 1.11263 13.2799 1.28098L22.7199 10.72C23.0593 11.0597 23.2499 11.5203 23.2499 12.0005C23.2499 12.4807 23.0593 12.9412 22.7199 13.281L13.2799 22.72C12.9404 23.0593 12.48 23.2498 11.9999 23.2498C11.5199 23.2498 11.0595 23.0593 10.7199 22.72L1.27995 13.281Z"></path></svg>