<svg viewBox="0 0 24 24" height="16" width="16" xmlns="http://www.w3.org/2000/svg" stroke-width="1.5"><path d="M18.001 21L21.001 21" fill="none" stroke="#bfbed0" stroke-linecap="round" stroke-linejoin="round"></path><path d="M19.501 19.5L19.501 22.5" fill="none" stroke="#bfbed0" stroke-linecap="round" stroke-linejoin="round"></path><path d="M0.751 5.25L5.251 5.25" fill="none" stroke="#bfbed0" stroke-linecap="round" stroke-linejoin="round"></path><path d="M3.001 3L3.001 7.5" fill="none" stroke="#bfbed0" stroke-linecap="round" stroke-linejoin="round"></path><path d="M14.230 7.311 A2.460 2.460 0 1 0 19.150 7.311 A2.460 2.460 0 1 0 14.230 7.311 Z" fill="none" stroke="#bfbed0" stroke-linecap="round" stroke-linejoin="round"></path><path d="M10.855,10.246l-9.5,9.5a2.05,2.05,0,0,0,2.9,2.9L5.7,21.2l1.458,1.458a1.64,1.64,0,0,0,2.32-2.32L8.021,18.88l5.734-5.734a6.561,6.561,0,1,0-2.9-2.9Z" fill="none" stroke="#bfbed0" stroke-linecap="round" stroke-linejoin="round"></path></svg>