<svg xmlns="http://www.w3.org/2000/svg" viewBox="0 0 24 24" stroke-width="1.5px" height="16" width="16"><g><circle cx="12" cy="12" r="11.25" fill="none" stroke="#bfbed0" stroke-linecap="round" stroke-linejoin="round"></circle><g><path d="M5,20.8l1-5.05H7.08a1.48,1.48,0,0,0,1.18-.58,1.44,1.44,0,0,0,.27-1.28l-.75-3A1.49,1.49,0,0,0,6.33,9.75H1" fill="none" stroke="#bfbed0" stroke-linecap="round" stroke-linejoin="round"></path><path d="M21,5.25H16.92a1.49,1.49,0,0,0-1.45,1.14l-.75,3A1.44,1.44,0,0,0,15,10.67a1.48,1.48,0,0,0,1.18.58h1.58L18.54,16A1.5,1.5,0,0,0,20,17.25H22" fill="none" stroke="#bfbed0" stroke-linecap="round" stroke-linejoin="round"></path></g></g></svg>