<svg xmlns="http://www.w3.org/2000/svg" fill="none" viewBox="0 0 24 24" stroke-width="1.5" height="16" width="16"><path stroke="#bfbed0" stroke-linecap="round" stroke-linejoin="round" d="M12.0001 4.5C10.5113 4.51125 9.03936 4.81565 7.66825 5.39582C6.29714 5.97599 5.05375 6.82056 4.00907 7.88131C2.96439 8.94205 2.13889 10.1982 1.57971 11.578C1.02053 12.9578 0.738624 14.4342 0.750092 15.923V18C0.750092 18.3978 0.908128 18.7794 1.18943 19.0607C1.47074 19.342 1.85227 19.5 2.25009 19.5H21.7501C22.1479 19.5 22.5294 19.342 22.8108 19.0607C23.0921 18.7794 23.2501 18.3978 23.2501 18V15.92C23.2725 12.9138 22.0998 10.0219 19.99 7.88025C17.8803 5.73862 15.0063 4.52272 12.0001 4.5Z"></path><path stroke="#bfbed0" stroke-linecap="round" stroke-linejoin="round" d="M9 19.5V18.75C9 17.9544 9.31607 17.1913 9.87868 16.6287C10.4413 16.0661 11.2044 15.75 12 15.75C12.7956 15.75 13.5587 16.0661 14.1213 16.6287C14.6839 17.1913 15 17.9544 15 18.75V19.5"></path><path stroke="#bfbed0" stroke-linecap="round" stroke-linejoin="round" d="M14.25 9.00293L12 15.7529"></path><path stroke="#bfbed0" d="M4.875 15.75C4.66789 15.75 4.5 15.5821 4.5 15.375C4.5 15.1679 4.66789 15 4.875 15"></path><path stroke="#bfbed0" d="M4.875 15.75C5.08211 15.75 5.25 15.5821 5.25 15.375C5.25 15.1679 5.08211 15 4.875 15"></path><path stroke="#bfbed0" d="M6.375 12.0029C6.16789 12.0029 6 11.835 6 11.6279C6 11.4208 6.16789 11.2529 6.375 11.2529"></path><path stroke="#bfbed0" d="M6.375 12.0029C6.58211 12.0029 6.75 11.835 6.75 11.6279C6.75 11.4208 6.58211 11.2529 6.375 11.2529"></path><path stroke="#bfbed0" d="M9.375 9.00293C9.16789 9.00293 9 8.83504 9 8.62793C9 8.42082 9.16789 8.25293 9.375 8.25293"></path><path stroke="#bfbed0" d="M9.375 9.00293C9.58211 9.00293 9.75 8.83504 9.75 8.62793C9.75 8.42082 9.58211 8.25293 9.375 8.25293"></path><g><path stroke="#bfbed0" d="M17.625 12C17.4179 12 17.25 11.8321 17.25 11.625C17.25 11.4179 17.4179 11.25 17.625 11.25"></path><path stroke="#bfbed0" d="M17.625 12C17.8321 12 18 11.8321 18 11.625C18 11.4179 17.8321 11.25 17.625 11.25"></path></g><g><path stroke="#bfbed0" d="M19.125 15.7529C18.9179 15.7529 18.75 15.585 18.75 15.3779C18.75 15.1708 18.9179 15.0029 19.125 15.0029"></path><path stroke="#bfbed0" d="M19.125 15.7529C19.3321 15.7529 19.5 15.585 19.5 15.3779C19.5 15.1708 19.3321 15.0029 19.125 15.0029"></path></g></svg>