<svg viewBox="-0.45 -0.45 16 16" xmlns="http://www.w3.org/2000/svg" height="16" width="16"><path d="M1.8875 3.303125a7.079383333333333 7.079383333333333 0 0 1 11.325 0" fill="none" stroke="#bfbed0" stroke-linecap="round" stroke-linejoin="round" stroke-width="0.9"></path><path d="M4.9075 3.303125c0.6027416666666666 -1.7188833333333333 1.5615916666666667 -2.83125 2.6425 -2.83125s2.0403875 1.1123666666666667 2.6425 2.83125" fill="none" stroke="#bfbed0" stroke-linecap="round" stroke-linejoin="round" stroke-width="0.9"></path><path d="m14.628124999999999 11.796875 -14.15625 0" fill="none" stroke="#bfbed0" stroke-linecap="round" stroke-linejoin="round" stroke-width="0.9"></path><path d="m0.471875 3.303125 14.15625 0" fill="none" stroke="#bfbed0" stroke-linecap="round" stroke-linejoin="round" stroke-width="0.9"></path><path d="M13.2125 11.796875a7.079383333333333 7.079383333333333 0 0 1 -11.325 0" fill="none" stroke="#bfbed0" stroke-linecap="round" stroke-linejoin="round" stroke-width="0.9"></path><path d="M10.192499999999999 11.796875c-0.6021124999999999 1.7195125 -1.5615916666666667 2.83125 -2.6425 2.83125s-2.0397583333333333 -1.1117374999999998 -2.6425 -2.83125" fill="none" stroke="#bfbed0" stroke-linecap="round" stroke-linejoin="round" stroke-width="0.9"></path><path d="M1.415625 5.190625v1.7987875a5.671308333333333 5.671308333333333 0 0 0 0.11010416666666666 1.1104791666666667L1.8875 9.909374999999999l0.94375 -2.83125 0.94375 2.83125 0.3617708333333333 -1.809483333333333a5.623491666666667 5.623491666666667 0 0 0 0.11010416666666666 -1.1104791666666667V5.190625" fill="none" stroke="#bfbed0" stroke-linecap="round" stroke-linejoin="round" stroke-width="0.9"></path><path d="M6.1343749999999995 5.190625v1.7987875a5.671308333333333 5.671308333333333 0 0 0 0.11010416666666666 1.1104791666666667l0.3617708333333333 1.809483333333333 0.94375 -2.83125 0.94375 2.83125 0.3617708333333333 -1.809483333333333a5.623491666666667 5.623491666666667 0 0 0 0.11010416666666666 -1.1104791666666667V5.190625" fill="none" stroke="#bfbed0" stroke-linecap="round" stroke-linejoin="round" stroke-width="0.9"></path><path d="M10.853125 5.190625v1.7987875a5.671308333333333 5.671308333333333 0 0 0 0.11010416666666666 1.1104791666666667L11.325 9.909374999999999l0.94375 -2.83125 0.94375 2.83125 0.3617708333333333 -1.809483333333333a5.623491666666667 5.623491666666667 0 0 0 0.11010416666666666 -1.1104791666666667V5.190625" fill="none" stroke="#bfbed0" stroke-linecap="round" stroke-linejoin="round" stroke-width="0.9"></path></svg>