<svg xmlns="http://www.w3.org/2000/svg" fill="none" viewBox="-0.5 -0.5 16 16" height="16" width="16"><path stroke="#bfbed0" stroke-linecap="round" stroke-linejoin="round" d="M5.625 5.625a1.875 1.875 0 1 1 2.5 1.7681250000000002 0.9375 0.9375 0 0 0 -0.625 0.884375v0.16" stroke-width="1"></path><path stroke="#bfbed0" d="M7.5 10.78125a0.234375 0.234375 0 0 1 0 -0.46875" stroke-width="1"></path><path stroke="#bfbed0" d="M7.5 10.78125a0.234375 0.234375 0 0 0 0 -0.46875" stroke-width="1"></path><path stroke="#bfbed0" stroke-linecap="round" stroke-linejoin="round" d="M13.59375 0.46875H1.40625a0.9375 0.9375 0 0 0 -0.9375 0.9375v12.1875a0.9375 0.9375 0 0 0 0.9375 0.9375h12.1875a0.9375 0.9375 0 0 0 0.9375 -0.9375V1.40625a0.9375 0.9375 0 0 0 -0.9375 -0.9375Z" stroke-width="1"></path></svg>