<svg xmlns="http://www.w3.org/2000/svg" fill="none" viewBox="0 0 24 24" stroke-width="1.5" height="16" width="16"><path stroke="#bfbed0" stroke-linecap="round" stroke-linejoin="round" d="M9 9.00004C9.00011 8.45007 9.15139 7.91071 9.43732 7.44091C9.72325 6.97111 10.1328 6.58895 10.6213 6.33619C11.1097 6.08344 11.6583 5.96982 12.2069 6.00776C12.7556 6.04569 13.2833 6.23372 13.7323 6.55129C14.1813 6.86886 14.5344 7.30375 14.7529 7.80843C14.9715 8.31311 15.0471 8.86816 14.9715 9.41291C14.8959 9.95766 14.6721 10.4712 14.3244 10.8973C13.9767 11.3234 13.5185 11.6457 13 11.829C12.7074 11.9325 12.4541 12.1241 12.275 12.3775C12.0959 12.631 11.9998 12.9337 12 13.244V13.5"></path><path stroke="#bfbed0" d="M12 17.25C11.7929 17.25 11.625 17.0821 11.625 16.875C11.625 16.6679 11.7929 16.5 12 16.5"></path><path stroke="#bfbed0" d="M12 17.25C12.2071 17.25 12.375 17.0821 12.375 16.875C12.375 16.6679 12.2071 16.5 12 16.5"></path><path stroke="#bfbed0" stroke-linecap="round" stroke-linejoin="round" d="M21.75 0.75H2.25C1.42157 0.75 0.75 1.42157 0.75 2.25V21.75C0.75 22.5784 1.42157 23.25 2.25 23.25H21.75C22.5784 23.25 23.25 22.5784 23.25 21.75V2.25C23.25 1.42157 22.5784 0.75 21.75 0.75Z"></path></svg>