<svg xmlns="http://www.w3.org/2000/svg" viewBox="0 0 24 24" stroke-width="1.5px" height="16" width="16"><g><rect x="2.25" y="0.75" width="18" height="22.5" rx="1.5" fill="none" stroke="#bfbed0" stroke-linecap="round" stroke-linejoin="round"></rect><line x1="23.25" y1="3.25" x2="23.25" y2="5.75" fill="none" stroke="#bfbed0" stroke-linecap="round" stroke-linejoin="round"></line><line x1="23.25" y1="9.25" x2="23.25" y2="11.75" fill="none" stroke="#bfbed0" stroke-linecap="round" stroke-linejoin="round"></line><line x1="23.25" y1="15.25" x2="23.25" y2="17.75" fill="none" stroke="#bfbed0" stroke-linecap="round" stroke-linejoin="round"></line><path d="M12,17.13h0a2.6,2.6,0,0,0,3.2.53l.44-.25A.86.86,0,0,0,16,16.24l-1.06-1.88A.85.85,0,0,0,13.72,14h0a.87.87,0,0,1-1.18-.33l-1.7-3a.88.88,0,0,1,.33-1.18h0a.85.85,0,0,0,.33-1.17L10.44,6.46a.85.85,0,0,0-1.17-.33l-.45.25a2.59,2.59,0,0,0-1.21,3h0A23.39,23.39,0,0,0,12,17.13Z" fill="none" stroke="#bfbed0" stroke-linecap="round" stroke-linejoin="round"></path><line x1="0.75" y1="6.25" x2="3.75" y2="6.25" fill="none" stroke="#bfbed0" stroke-linecap="round" stroke-linejoin="round"></line><line x1="0.75" y1="12" x2="3.75" y2="12" fill="none" stroke="#bfbed0" stroke-linecap="round" stroke-linejoin="round"></line><line x1="0.75" y1="17.75" x2="3.75" y2="17.75" fill="none" stroke="#bfbed0" stroke-linecap="round" stroke-linejoin="round"></line></g></svg>