<svg viewBox="0 0 24 24" xmlns="http://www.w3.org/2000/svg" stroke-width="1.5" height="16" width="16"><path d="M21.75 23.25H2.25a1.5 1.5 0 0 1-1.5-1.5V7.243a3 3 0 0 1 .879-2.121l3.492-3.493A3 3 0 0 1 7.243.75H21.75a1.5 1.5 0 0 1 1.5 1.5v19.5a1.5 1.5 0 0 1-1.5 1.5Z" fill="none" stroke="#000000" stroke-linecap="round" stroke-linejoin="round"></path><path d="M9.75 12.75a3 3 0 1 0 6 0 3 3 0 1 0-6 0Z" fill="none" stroke="#000000" stroke-linecap="round" stroke-linejoin="round"></path><path d="M12.75 20.25h6.75" fill="none" stroke="#000000" stroke-linecap="round" stroke-linejoin="round"></path><path d="M8.25.75v3a1.5 1.5 0 0 0 1.5 1.5h7.5a1.5 1.5 0 0 0 1.5-1.5v-3" fill="none" stroke="#000000" stroke-linecap="round" stroke-linejoin="round"></path></svg>