<svg xmlns="http://www.w3.org/2000/svg" fill="none" viewBox="0 0 24 24" stroke-width="1.5" height="16" width="16"><path stroke="#bfbed0" stroke-linecap="round" stroke-linejoin="round" d="M16.125 0.75H7.875C6.21815 0.75 4.875 2.09315 4.875 3.75V20.25C4.875 21.9069 6.21815 23.25 7.875 23.25H16.125C17.7819 23.25 19.125 21.9069 19.125 20.25V3.75C19.125 2.09315 17.7819 0.75 16.125 0.75Z"></path><path stroke="#bfbed0" d="M12 3.775C11.8619 3.775 11.75 3.66307 11.75 3.525C11.75 3.38693 11.8619 3.275 12 3.275"></path><path stroke="#bfbed0" d="M12 3.775C12.1381 3.775 12.25 3.66307 12.25 3.525C12.25 3.38693 12.1381 3.275 12 3.275"></path></svg>