<svg xmlns="http://www.w3.org/2000/svg" fill="none" viewBox="-0.5 -0.5 16 16" height="16" width="16"><path stroke="#bfbed0" stroke-linecap="round" stroke-linejoin="round" stroke-miterlimit="10" d="M12.54 9.65625a3.04875 3.04875 0 0 0 1.99125 -2.875c0 -1.6875 -1.36875 -3.0625 -3.04875 -3.0625 -0.6225 0 -1.244375 0.1875 -1.7425 0.5625 -0.435625 -2.1875 -2.3025 -3.8125 -4.604375 -3.8125C2.5843749999999996 0.46875 0.46875 2.59375 0.46875 5.15625c0 1.5 0.684375 2.8125 1.7425 3.625" stroke-width="1"></path><path stroke="#bfbed0" stroke-linecap="round" stroke-linejoin="round" stroke-miterlimit="10" d="M4.476875 9.6875c-1.125 1.125 -1.125 2.875 0 4 1.125 1.125 2.875 1.125 4 0 0.875 -0.875 1.0625 -2.125 0.5625 -3.1875l2.3125 -2.3125V6.875h-1.3125l-2.3125 2.3125c-1.0625 -0.5625 -2.375 -0.375 -3.25 0.5Z" stroke-width="1"></path><path stroke="#bfbed0" stroke-linecap="round" stroke-linejoin="round" stroke-miterlimit="10" d="M5.914375 12.3125a0.125 0.125 0 0 1 0 -0.25" stroke-width="1"></path><path stroke="#bfbed0" stroke-linecap="round" stroke-linejoin="round" stroke-miterlimit="10" d="M5.91375 12.3125a0.125 0.125 0 0 0 0 -0.25" stroke-width="1"></path></svg>