<svg xmlns="http://www.w3.org/2000/svg" fill="none" viewBox="-0.25 -0.25 24.5 24.5" height="16" width="16" stroke-width="1.5"><path stroke="#bfbed0" stroke-linecap="round" stroke-linejoin="round" d="M18.5 0.5H5.5C4.39543 0.5 3.5 1.39543 3.5 2.5V21.5C3.5 22.6046 4.39543 23.5 5.5 23.5H18.5C19.6046 23.5 20.5 22.6046 20.5 21.5V2.5C20.5 1.39543 19.6046 0.5 18.5 0.5Z"></path><path stroke="#bfbed0" stroke-linecap="round" stroke-linejoin="round" d="M20.5 19H3.5"></path><path stroke="#bfbed0" stroke-linecap="round" stroke-linejoin="round" d="M20.5 4.5H3.5"></path><path stroke="#bfbed0" d="M12 21.5C11.8619 21.5 11.75 21.3881 11.75 21.25C11.75 21.1119 11.8619 21 12 21"></path><path stroke="#bfbed0" d="M12 21.5C12.1381 21.5 12.25 21.3881 12.25 21.25C12.25 21.1119 12.1381 21 12 21"></path></svg>