<svg viewBox="-0.25 -0.25 24.5 24.5" xmlns="http://www.w3.org/2000/svg" height="16" width="16" stroke-width="1.5"><path d="M0.500 18.500 A5.000 5.000 0 1 0 10.500 18.500 A5.000 5.000 0 1 0 0.500 18.500 Z" fill="none" stroke="#bfbed0" stroke-linecap="round" stroke-linejoin="round"></path><path d="M10.5,7V3a2.281,2.281,0,0,0-3,0L6,7,4.5,8.5l-3,7" fill="none" stroke="#bfbed0" stroke-linecap="round" stroke-linejoin="round"></path><path d="M13.500 18.500 A5.000 5.000 0 1 0 23.500 18.500 A5.000 5.000 0 1 0 13.500 18.500 Z" fill="none" stroke="#bfbed0" stroke-linecap="round" stroke-linejoin="round"></path><path d="M13.5,7V3.063a2.281,2.281,0,0,1,3,0L18,7l1.5,1.5,3,7" fill="none" stroke="#bfbed0" stroke-linecap="round" stroke-linejoin="round"></path><path d="M8,11C8,9.9,9.791,9,12,9s4,.895,4,2" fill="none" stroke="#bfbed0" stroke-linecap="round" stroke-linejoin="round"></path><path d="M10.5 18.5L10.5 9.145" fill="none" stroke="#bfbed0" stroke-linecap="round" stroke-linejoin="round"></path><path d="M13.5 18.5L13.5 9.145" fill="none" stroke="#bfbed0" stroke-linecap="round" stroke-linejoin="round"></path></svg>