<?xml version="1.0" encoding="UTF-8"?>
<svg width="110px" height="25px" viewBox="0 0 110 25" version="1.1" xmlns="http://www.w3.org/2000/svg" xmlns:xlink="http://www.w3.org/1999/xlink">
    <title>Shape</title>
    <desc>Created with Sketch.</desc>
    <g id="Page-1" stroke="none" stroke-width="1" fill="none" fill-rule="evenodd">
        <path d="M91.7880459,24.31482 C90.5310585,22.4996743 89.8135994,20.1820606 89.8135994,17.5494778 C89.8135994,11.505238 94.1751812,6.93735464 99.910398,6.93735464 C105.748766,6.93735464 110.008038,11.505238 110.008038,17.6870122 C110.008038,20.2424543 109.288217,22.5193379 108.037171,24.31482 L99.9921417,24.31482 C103.3121,24.2728706 105.474547,21.6725643 105.474547,17.6870036 C105.474547,13.7032207 103.276564,11.0930556 99.9104066,11.0930556 C96.5107068,11.0930556 94.3470992,13.7032121 94.3470992,17.7901544 C94.3470992,21.6733999 96.5433715,24.2728751 99.8295109,24.31482 L91.7880459,24.31482 Z M82.4462866,24.31482 L82.4462866,16.3133686 C82.4462866,13.9434679 82.2060222,12.8444809 81.5535926,12.123284 C80.9695008,11.4708458 79.9736645,11.0930556 78.8402853,11.0930556 C77.3978831,11.0930556 76.024248,11.848636 75.234284,13.0507824 C74.6501922,13.9434765 74.4787036,14.7334405 74.4787036,16.3133771 L74.4787036,24.31482 L69.9452038,24.31482 L69.9452038,7.48706285 L74.3067856,7.48706285 L74.3067856,9.75381272 C75.9210972,7.76171086 77.6725225,6.93735464 80.1451532,6.93735464 C82.7896932,6.93735464 85.0564431,8.20825968 86.0866716,10.268708 C86.8078684,11.7111102 86.9797864,12.9820152 86.9797864,16.4160986 L86.9797864,24.31482 L82.4462866,24.31482 Z M62.140887,21.296321 L66.6948825,21.296321 C66.4006854,22.4214853 65.9543787,23.431925 65.36793,24.31482 L58.0479441,24.31482 C60.1440528,23.9763826 61.4715653,23.0044511 62.140887,21.296321 Z M50.1036481,24.31482 C48.9701461,22.6083395 48.3601873,20.4253763 48.3601873,17.8585008 C48.3601873,11.4364622 52.2752117,6.90297105 57.8389398,6.90297105 C61.7883478,6.90297105 64.9821753,9.16972092 66.2874639,12.913248 C66.871135,14.5615225 67.1113908,16.4848658 67.1113908,19.1637895 L52.8588827,19.1637895 C53.1448331,22.2237231 54.5739426,23.8547093 57.423634,24.31482 L50.1036481,24.31482 Z M57.7701726,10.8527998 C55.1256326,10.8527998 53.3398237,12.6386086 52.9620335,15.6949017 L62.5783118,15.6949017 C62.2348966,12.6386086 60.4834713,10.8527998 57.7701726,10.8527998 Z M24.1295573,24.31482 L24.1295573,7.48705426 L28.4911391,7.48705426 L28.4911391,9.75380413 C29.8303905,7.86484447 31.6510038,6.93734606 33.9865123,6.93734606 C34.2263559,6.93734606 34.3982653,6.93734606 34.7420927,6.97172965 L34.7420927,11.1274392 C34.3295153,11.0930556 34.2951317,11.0930556 33.9521372,11.0930556 C30.4484452,11.0930556 28.6630571,12.913248 28.6630571,16.5192494 L28.6630571,24.31482 L24.1295573,24.31482 Z M41.4224205,24.31482 L36.8889207,24.31482 L36.8889207,7.48705426 L41.2505025,7.48705426 L41.2505025,9.75380413 C42.5897539,7.86484447 44.4103672,6.93734606 46.7458757,6.93734606 C46.9857193,6.93734606 47.1576287,6.93734606 47.5014561,6.97172965 L47.5014561,11.1274392 C47.0888787,11.0930556 47.0544951,11.0930556 46.7115007,11.0930556 C43.2078086,11.0930556 41.4224205,12.913248 41.4224205,16.5192494 L41.4224205,24.31482 Z M2.44865928,24.31482 L2.44865928,11.642343 L0.01,11.642343 L0.01,7.48705426 L2.44865928,7.48705426 L2.44865928,1.57991947 L6.98215902,1.57991947 L6.98215902,7.48705426 L12.6829922,7.48705426 L12.6829922,11.642343 L6.98215043,11.642343 L6.98215043,24.31482 L2.44865928,24.31482 Z M14.8217009,4.87690636 L14.8217009,2.84217094e-14 L19.8357209,2.84217094e-14 L19.8357209,4.87690636 L14.8217009,4.87690636 Z M15.0619567,24.31482 L15.0619567,7.48705426 L19.5954565,7.48705426 L19.5954565,24.31482 L15.0619567,24.31482 Z" id="Shape" fill="#BFBED0" fill-rule="nonzero"></path>
    </g>
</svg>