<?xml version="1.0" encoding="UTF-8"?>
<svg width="640px" height="480px" viewBox="0 0 640 480" version="1.1" xmlns="http://www.w3.org/2000/svg" xmlns:xlink="http://www.w3.org/1999/xlink">
    <!-- Generator: Sketch 55.1 (78136) - https://sketchapp.com -->
    <title>lh</title>
    <desc>Created with Sketch.</desc>
    <g id="Page-1" stroke="none" stroke-width="1" fill="none" fill-rule="evenodd">
        <g id="lh" fill-rule="nonzero">
            <polygon id="Path" fill="#bfbed0" points="0 480 0 0 640 0 640 480"></polygon>
            <path d="M296.9375,339.039062 L359.796875,339.039062 L359.796875,400 L296.9375,400 L296.9375,339.039062 Z M219.945312,187.164062 C221.632821,147.085737 235.624869,118.679771 261.921875,101.945312 C278.515708,91.2577591 298.906129,85.9140625 323.09375,85.9140625 C354.875159,85.9140625 381.277239,93.5077366 402.300781,108.695312 C423.324324,123.882888 433.835938,146.382663 433.835938,176.195312 C433.835938,194.476654 429.265671,209.874937 420.125,222.390625 C414.781223,229.984413 404.515701,239.687441 389.328125,251.5 L374.351562,263.101562 C366.195272,269.429719 360.781263,276.812458 358.109375,285.25 C356.421867,290.593777 355.507813,298.890569 355.367188,310.140625 L298.414062,310.140625 C299.257817,286.374881 301.507794,269.957077 305.164062,260.886719 C308.820331,251.816361 318.242112,241.375059 333.429688,229.5625 L348.828125,217.539062 C353.89065,213.742169 357.968735,209.593773 361.0625,205.09375 C366.687528,197.359336 369.5,188.851609 369.5,179.570312 C369.5,168.882759 366.371125,159.144575 360.113281,150.355469 C353.855437,141.566362 342.42977,137.171875 325.835938,137.171875 C309.523356,137.171875 297.957065,142.585883 291.136719,153.414062 C284.316372,164.242242 280.90625,175.492129 280.90625,187.164062 L219.945312,187.164062 Z" id="?" fill="#131220"></path>
        </g>
    </g>
</svg>